PathFileType	4	(X/Y/Z)	C:/Users/beibeiliu/ov580/test_trc/User1\sequence.37_training_dense_left.trc
DataRate	CameraRate	NumFrames	NumMarkers	Units	OrigDataRate	OrigDataStartFrame	OrigNumFrames
120	120	13	19	mm	120	92	243
Frame#	Time	ThumbCMC			ThumbMCP			ThumbIP			ThumbTip			IndexMCP			IndexPIP			IndexTip			MiddleMCP			MiddlePIP			MiddleTip			RingMCP			RingPIP			RingTip			PinkyMCP			PinkyPIP			PinkyTip			BackHand1			BackHand2			BackHand3	
		X0	Y0	Z0	X1	Y1	Z1	X2	Y2	Z2	X3	Y3	Z3	X4	Y4	Z4	X5	Y5	Z5	X6	Y6	Z6	X7	Y7	Z7	X8	Y8	Z8	X9	Y9	Z9	X10	Y10	Z10	X11	Y11	Z11	X12	Y12	Z12	X13	Y13	Z13	X14	Y14	Z14	X15	Y15	Z15	X16	Y16	Z16	X17	Y17	Z17	X18	Y18	Z18	
91	0.758333	-111.232	10.2536	42.6428	-93.1201	22.9392	14.7526	-80.3497	14.5133	-11.5942	-67.6672	-5.83131	-25.7203	-89.1891	-20.6927	-39.1017	-61.7806	-33.03	-34.8771	-48.0411	-33.1412	-3.07233	-96.8301	-42.998	-37.0712	-58.4206	-49.4858	-29.6348	-45.52	-49.1265	5.19486	-92.6776	-66.3798	-28.3764	-63.5604	-70.2449	-17.5558	-53.6493	-63.1821	13.6129	-103.34	-82.7388	-9.63142	-72.6378	-79.8611	-3.68709	-62.654	-60.8354	21.715	-142.228	-51.4842	14.5119	-150.045	-47.6157	46.9905	-138.68	-16.156	25.2718	
92	0.766667	-110.114	8.01742	43.4726	-93.9268	18.9415	17.1264	-82.267	10.8383	-13.3532	-70.1765	-11.3735	-24.4477	-92.6186	-23.7522	-36.7196	-59.677	-35.4176	-34.5502	-48.4326	-37.8503	-4.72324	-95.7848	-49.6584	-36.9457	-60.9168	-55.0185	-29.2424	-44.7442	-49.7305	6.37823	-94.6835	-70.323	-26.5409	-62.0233	-71.7723	-15.3179	-52.4476	-63.174	11.9608	-101.257	-86.3837	-10.417	-72.9089	-81.0949	-4.22237	-64.4042	-60.7864	21.7635	-142.053	-56.064	15.8455	-149.221	-46.5887	51.2968	-138.739	-20.0304	29.4561	
93	0.775	-109.925	4.90495	43.6676	-94.1277	16.9982	13.5736	-82.4956	8.57678	-9.0597	-66.932	-10.2275	-26.706	-92.3201	-22.1097	-37.3546	-60.4896	-35.4512	-36.0685	-45.3081	-36.6391	-2.22686	-91.2003	-49.2058	-37.7093	-60.4694	-55.3866	-30.5535	-46.0787	-54.8642	5.87339	-92.3067	-72.6673	-26.1769	-63.7696	-73.3823	-16.4225	-53.0214	-62.0295	14.9555	-100.973	-84.5479	-11.0735	-72.4666	-81.0275	-3.70152	-65.0686	-62.9522	23.0082	-142.551	-52.7572	14.7012	-147.586	-46.4978	48.8271	-139.394	-18.4657	27.997	
94	0.783333	-110.953	1.08558	44.8647	-92.3447	18.4537	15.141	-81.3224	7.49799	-13.4543	-68.584	-12.3376	-24.5425	-88.3581	-24.694	-37.43	-60.5159	-39.4545	-34.2631	-45.9087	-38.688	-4.38527	-91.0192	-49.6284	-37.5765	-57.7057	-54.9201	-29.3341	-44.6274	-55.6239	8.1568	-93.1101	-72.8011	-25.4007	-62.8841	-72.7375	-16.8804	-52.5605	-65.9868	17.6786	-99.8153	-86.3321	-9.31538	-72.7123	-88.0997	-2.87936	-61.3043	-65.6719	22.9875	-139.933	-54.6524	17.3162	-149.648	-49.8462	50.0385	-138.976	-22.5375	28.4638	
95	0.791667	-110.561	0.787262	44.0565	-91.4412	16.2495	17.6655	-82.6204	4.64	-11.2907	-65.0258	-11.3876	-26.5445	-87.7738	-27.9293	-37.8292	-58.2313	-40.6664	-32.5751	-45.0765	-40.064	0.720343	-91.9466	-55.0064	-36.2689	-60.4852	-57.3614	-31.5602	-44.6893	-56.6497	6.92158	-92.2152	-75.9721	-23.4401	-63.1553	-76.217	-15.7755	-51.8658	-67.7286	14.1351	-101.356	-91.7466	-6.05825	-68.4486	-85.652	0.914229	-61.7915	-64.232	22.0332	-141.479	-59.5314	15.6695	-146.78	-50.6543	51.6626	-139.032	-18.7009	27.281	
96	0.8	-109.086	0.540488	42.5909	-91.0624	10.4334	15.7289	-78.1466	5.82303	-14.3684	-65.6906	-15.0364	-27.4558	-89.1868	-27.6691	-35.5371	-56.2668	-36.8748	-33.86	-42.3741	-40.1526	0.265489	-94.2636	-54.8968	-33.3374	-58.3164	-60.8994	-28.2768	-43.2998	-57.2582	4.56591	-91.6475	-73.3924	-24.1572	-59.1934	-74.8653	-14.2329	-51.0698	-67.6019	15.8839	-96.7782	-90.3758	-7.32631	-69.1991	-85.1163	0.313507	-60.1163	-68.4125	23.6862	-140.152	-61.137	17.5083	-149.785	-54.3372	50.2724	-136.767	-19.6862	30.6927	
97	0.808333	-107.898	-1.66541	43.541	-88.0087	9.00224	17.061	-77.8867	2.56058	-8.51799	-63.7779	-15.0815	-31.1669	-91.2012	-26.2858	-35.1725	-54.9638	-37.7227	-32.7392	-41.819	-38.7214	0.290024	-93.5151	-57.3831	-33.114	-56.3888	-59.6954	-27.4819	-42.2119	-54.8945	6.05263	-91.4989	-74.8765	-23.2229	-59.7735	-78.6362	-12.698	-50.8108	-69.0225	17.6507	-97.0403	-91.8742	-6.23419	-68.081	-84.4901	0.329138	-60.0005	-65.9102	25.0113	-140.106	-58.6612	17.3275	-147.346	-55.0582	55.2511	-137.278	-24.3088	27.8142	
98	0.816667	-106.501	0.646841	43.1354	-84.2238	9.42258	17.0196	-75.6573	2.72784	-13.5117	-64.1741	-11.6291	-31.0849	-90.3518	-30.3745	-34.7838	-55.4334	-39.568	-31.7851	-42.6205	-40.5593	-1.30781	-91.7061	-57.2437	-33.5347	-58.6829	-59.6712	-29.5829	-42.7584	-55.2085	9.29607	-90.3345	-77.4573	-22.0562	-60.2614	-79.9073	-12.3056	-50.9012	-68.4051	16.4881	-95.8355	-92.227	-4.73214	-68.1087	-84.6978	2.0427	-61.0092	-64.7532	27.7565	-138.219	-61.7617	17.3828	-146.457	-56.6603	55.1449	-135.7	-22.3147	31.8417	
99	0.825	-105.608	-4.80157	38.5258	-84.4845	3.42708	13.3112	-74.3992	3.6217	-11.6647	-61.6389	-5.63788	-32.9766	-87.1473	-33.7379	-36.5177	-57.3182	-42.2067	-34.116	-43.4842	-41.1078	0.242377	-91.5537	-59.4475	-33.1481	-54.9364	-60.499	-25.6907	-42.903	-53.5728	11.4136	-87.1304	-79.986	-21.0737	-57.4918	-76.4611	-10.6176	-51.2706	-64.445	19.2877	-96.49	-91.8924	-4.01224	-67.515	-86.6202	3.09105	-63.2845	-65.6472	26.166	-139.149	-64.7333	19.0251	-145.314	-56.1191	51.7748	-138.478	-25.9724	31.0983	
100	0.833333	-102.85	-5.55956	42.2418	-81.9442	2.28199	12.6349	-73.5598	2.3728	-11.3881	-60.878	-0.111323	-34.5932	-87.5942	-33.5252	-36.4981	-57.3658	-44.1005	-33.4938	-44.5487	-42.5248	2.75527	-85.7587	-61.8765	-34.2214	-54.589	-62.8754	-25.0458	-43.2303	-52.0018	12.2334	-88.9745	-79.0387	-20.9009	-57.1689	-76.4159	-9.83877	-51.8375	-64.9932	23.6661	-92.4269	-96.6448	-2.02188	-66.4715	-85.2646	4.74541	-63.6028	-63.8444	28.7055	-137.585	-65.3751	17.4568	-144.033	-53.9322	54.3514	-134.418	-24.6187	28.1699	
101	0.841667	-102.649	-5.39516	34.95	-82.1632	-4.16384	13.318	-74.4964	-2.65769	-13.2062	-62.3974	-0.402283	-34.9422	-86.2259	-35.386	-37.6889	-56.5089	-44.0628	-33.3895	-46.2803	-42.2259	5.18558	-88.6228	-61.6543	-32.4169	-52.4554	-64.1253	-19.9069	-45.7789	-55.7907	14.061	-86.5741	-79.9519	-21.2004	-54.3099	-78.3938	-4.68798	-52.1364	-65.5118	23.7292	-91.6303	-97.076	-2.0996	-66.9603	-85.4659	4.95466	-65.2807	-63.4096	31.4428	-137.922	-65.1463	17.1734	-143.124	-57.907	49.632	-135.988	-25.2792	23.1827	
102	0.85	-102.489	-5.0335	33.9093	-82.1706	-2.73652	8.52033	-73.6891	-2.96636	-14.6793	-62.1555	-0.564026	-36.3554	-83.353	-36.4509	-39.912	-54.0761	-44.5547	-31.722	-47.8302	-42.2613	2.29499	-85.8578	-65.48	-32.8135	-52.4868	-61.155	-22.4085	-46.8117	-52.5992	15.0041	-86.5885	-83.4556	-18.6441	-54.5434	-76.4254	-5.14013	-52.8672	-65.4515	25.4382	-92.6885	-95.2917	-1.67843	-65.9622	-83.0132	7.45483	-66.3443	-63.1079	32.4356	-136.808	-67.5924	16.5781	-142.764	-54.7347	48.4566	-136.336	-28.9799	23.4574	
103	0.858333	-102.158	-8.99985	34.6	-82.5921	-5.38612	10.3977	-72.911	-1.69809	-15.6263	-62.952	0.694415	-37.2267	-85.9237	-39.4608	-39.2854	-54.1638	-46.6106	-30.5493	-48.5121	-38.4074	3.84918	-86.4884	-64.4879	-33.0132	-52.362	-63.3186	-19.6263	-48.1611	-51.3839	12.6494	-85.5171	-80.521	-19.8527	-55.1379	-75.6901	-5.94917	-54.6349	-62.1129	26.3802	-90.0252	-96.0703	-2.45522	-65.6627	-82.0854	7.7329	-67.8522	-59.2325	31.3468	-135.299	-67.5615	16.3256	-142.544	-55.9182	48.5807	-135.381	-29.8021	23.9898	
